<?xml version="1.0" encoding="utf-8"?>
<!-- Generator: Adobe Illustrator 19.2.0, SVG Export Plug-In . SVG Version: 6.00 Build 0)  -->
<svg version="1.1" id="Layer_1" xmlns="http://www.w3.org/2000/svg" xmlns:xlink="http://www.w3.org/1999/xlink" x="0px" y="0px"
	 viewBox="0 0 1200 560" style="enable-background:new 0 0 1200 560;" xml:space="preserve">
<g>
	<g>
		<path d="M78.3,10.5v208.1h41.1v52.1H10.6V10.5H78.3z"/>
		<path d="M453.2,89.2h-62.8V69.9c0-9-0.8-14.7-2.4-17.2c-1.6-2.5-4.3-3.7-8-3.7c-4.1,0-7.2,1.7-9.2,5c-2.1,3.3-3.1,8.4-3.1,15.1
			c0,8.7,1.2,15.2,3.5,19.6c2.2,4.4,8.6,9.7,19.1,15.9c30.1,17.9,49.1,32.5,56.9,44c7.8,11.5,11.7,29.9,11.7,55.4
			c0,18.5-2.2,32.2-6.5,41c-4.3,8.8-12.7,16.2-25.2,22.1c-12.4,5.9-26.9,8.9-43.4,8.9c-18.1,0-33.6-3.4-46.4-10.3
			c-12.8-6.9-21.2-15.6-25.2-26.2c-4-10.6-5.9-25.7-5.9-45.2v-17h62.8v31.7c0,9.8,0.9,16,2.7,18.8s4.9,4.2,9.4,4.2s7.8-1.8,10-5.3
			c2.2-3.5,3.3-8.8,3.3-15.8c0-15.3-2.1-25.3-6.3-30.1c-4.3-4.7-14.8-12.6-31.7-23.6c-16.8-11.1-28-19.2-33.4-24.3
			c-5.5-5-10-12-13.6-20.9c-3.6-8.9-5.4-20.3-5.4-34.1c0-19.9,2.5-34.5,7.6-43.7c5.1-9.2,13.3-16.4,24.7-21.6
			C347.9,7.6,361.6,5,377.7,5c17.6,0,32.5,2.8,44.9,8.5c12.4,5.7,20.6,12.8,24.6,21.5c4,8.6,6,23.3,6,44V89.2z"/>
		<path d="M616.4,10.5v52.1h-40.2v208.1h-67.7V62.5h-40V10.5H616.4z"/>
		<path d="M861.5,171.8v43.9l-18.1,11.6l22.7,43.4h-60.1l-7.8-14.5c-20.1,13.3-39.2,19.9-57.2,19.9c-18.9,0-33.4-6.3-43.5-18.8
			c-10.2-12.5-15.3-27.6-15.3-45.3c0-14.1,3-25.2,9-33.3c6-8,15-14.6,27-19.6c-17.1-12.3-25.7-29-25.7-50c0-18.1,6.1-32.7,18.3-43.7
			c12.2-11,29-16.6,50.5-16.6c19.3,0,34.5,5.4,45.6,16.2c11.1,10.8,16.6,24.6,16.6,41.3c0,17.6-6.8,33.2-20.3,46.8l22.9,41.4
			L861.5,171.8z M775.9,226.9l-21-35.1c-8,7.3-12.1,15.2-12.1,23.6c0,6.1,1.3,10.7,3.8,13.7c2.5,3.1,6.2,4.6,11.1,4.6
			C763,233.7,769,231.4,775.9,226.9z M761.2,126.2c7.4-9.5,11.1-18.6,11.1-27.3c0-3.8-1.1-7.2-3.2-10.3c-2.1-3.1-5.1-4.7-9-4.7
			c-3.5,0-6.2,1.2-8,3.5c-1.8,2.4-2.7,5.9-2.7,10.8C749.3,108.3,753.2,117.6,761.2,126.2z"/>
	</g>
	<g>
		<path d="M4.9,290.1h114.6v52.1H72.6v49.3h41.8v49.5H72.6v109.3H4.9V290.1z"/>
		<path d="M463.8,290.1V464c0,19.7-0.6,33.6-1.9,41.5c-1.3,8-5.1,16.2-11.4,24.6c-6.3,8.4-14.7,14.8-25,19.1
			c-10.3,4.3-22.5,6.5-36.6,6.5c-15.5,0-29.3-2.6-41.1-7.7c-11.9-5.1-20.8-11.8-26.7-20.1c-5.9-8.3-9.4-17-10.4-26.1
			c-1.1-9.2-1.6-28.4-1.6-57.8v-154h67.7v195.1c0,11.4,0.6,18.6,1.8,21.8c1.2,3.2,3.7,4.7,7.5,4.7c4.3,0,7-1.7,8.3-5.2
			c1.2-3.5,1.8-11.7,1.8-24.7V290.1H463.8z"/>
		<path d="M641,290.1v260.2h-59.3l-35.2-118.3v118.3H490V290.1h56.6l37.9,117.2V290.1H641z"/>
		<path d="M668.2,290.1h50.6c32.7,0,54.8,1.5,66.3,4.5c11.5,3,20.3,7.9,26.3,14.8c6,6.9,9.7,14.5,11.3,22.9
			c1.5,8.4,2.3,24.9,2.3,49.6V473c0,23.4-1.1,39-3.3,46.9c-2.2,7.9-6,14-11.5,18.5s-12.2,7.6-20.3,9.3c-8,1.8-20.1,2.7-36.3,2.7
			h-85.3V290.1z M735.9,334.7v171.2c9.7,0,15.8-2,18-5.9s3.4-14.5,3.4-31.9V367c0-11.8-0.4-19.3-1.1-22.7c-0.8-3.3-2.5-5.8-5.1-7.3
			C748.3,335.4,743.3,334.7,735.9,334.7z"/>
	</g>
	<g>
		<path d="M295.1,300.9c0,26.1-0.6,44.7-1.8,55.5c-1.2,10.9-5.1,20.8-11.6,29.8c-6.5,9-15.2,15.9-26.3,20.7
			c-11,4.8-23.9,7.2-38.6,7.2c-13.9,0-26.4-2.3-37.5-6.8c-11.1-4.6-20-11.4-26.8-20.5c-6.8-9.1-10.8-19-12.1-29.7
			c-1.3-10.7-1.9-29.5-1.9-56.3v-44.5c0-26.1,0.6-44.7,1.8-55.5c1.2-10.9,5.1-20.8,11.6-29.8c6.5-9,15.2-15.9,26.3-20.7
			c11-4.8,23.9-7.2,38.6-7.2c13.9,0,26.4,2.3,37.5,6.8c11.1,4.6,20,11.4,26.8,20.5c6.8,9.1,10.8,19,12.1,29.7
			c1.3,10.7,1.9,29.5,1.9,56.3V300.9z M227.4,215.4c0-12.1-0.7-19.8-2-23.2c-1.3-3.4-4.1-5.1-8.3-5.1c-3.5,0-6.2,1.4-8.1,4.1
			c-1.9,2.7-2.8,10.8-2.8,24.2v121.5c0,15.1,0.6,24.4,1.8,28c1.2,3.5,4.1,5.3,8.6,5.3c4.6,0,7.6-2,8.8-6.1
			c1.3-4.1,1.9-13.8,1.9-29.1V215.4z"/>
	</g>
	<g>
		<g>
			<path d="M1006,8.2v53h-49v-53H1006z"/>
		</g>
		<g>
			<path d="M1124.7,8.2v53h-49v-53H1124.7z"/>
		</g>
	</g>
	<g>
		<g>
			<path d="M1006,338.9v53h-49v-53H1006z"/>
		</g>
		<g>
			<path d="M1124.7,338.9v53h-49v-53H1124.7z"/>
		</g>
	</g>
	<g>
		<g>
			<path d="M1192.2,456.2v44.4c-40.8,37.1-91,55.6-150.5,55.6c-57.5,0-108.2-18.5-152.3-55.6v-44c46.1,34.8,96.9,52.1,152.3,52.1
				S1147.3,491.2,1192.2,456.2z"/>
		</g>
		<g>
			<path d="M1192.2,224.5v44c-44.7-35.1-94.9-52.6-150.5-52.6c-55.2,0-105.9,17.5-152.3,52.6v-44.4c44.2-37.2,94.9-55.7,152.3-55.7
				C1100.8,168.4,1150.9,187.1,1192.2,224.5z"/>
		</g>
	</g>
</g>
</svg>
